<svg width="177" height="177" viewBox="0 0 177 177" fill="none" xmlns="http://www.w3.org/2000/svg">
<path d="M113.554 37.1073C114.723 35.9334 116.619 35.9334 117.788 37.1073L166.883 86.3982C168.052 87.5721 168.052 89.4754 166.883 90.6493L117.784 139.944C116.615 141.118 114.719 141.118 113.55 139.944L64.4555 90.6535C63.2863 89.4796 63.2863 87.5763 64.4555 86.4024L113.554 37.1073Z" fill="#F14C03"/>
<path d="M45.5814 90.6684C44.4154 89.4978 44.4153 87.6047 45.5814 86.4341L86.6636 45.1893C88.0436 43.8038 87.7501 41.4867 86.0016 40.6111C78.8697 37.0396 70.8462 35 62.3319 35C32.8818 35 9 58.9773 9 88.5512C9 118.125 32.8818 142.102 62.3319 142.102C70.8445 142.102 78.8693 140.061 86.0015 136.489C87.7501 135.614 88.0436 133.297 86.6634 131.911L45.5814 90.6684Z" fill="#F14C03"/>
</svg>
