<svg width="64" height="64" viewBox="0 0 64 64" fill="none" xmlns="http://www.w3.org/2000/svg">
<path d="M59.6128 14.4713C59.0175 14.1796 58.7611 14.7355 58.413 15.0179C58.2939 15.109 58.1932 15.2274 58.0924 15.3367C57.2223 16.2659 56.2057 16.8765 54.8776 16.8035C52.9359 16.6941 51.2781 17.3047 49.8126 18.7898C49.5012 16.9585 48.4663 15.865 46.8909 15.1636C46.0667 14.7991 45.2332 14.4346 44.6561 13.6419C44.2531 13.0772 44.1432 12.4485 43.9417 11.8289C43.8134 11.4554 43.6852 11.0726 43.2547 11.0088C42.7876 10.936 42.6044 11.3276 42.4212 11.6558C41.6885 12.9952 41.4046 14.4712 41.432 15.9654C41.4961 19.3275 42.9158 22.006 45.7367 23.9103C46.0573 24.129 46.1397 24.3475 46.039 24.6666C45.8466 25.3226 45.6176 25.9603 45.4162 26.6163C45.2879 27.0355 45.0955 27.1266 44.6468 26.9442C43.0989 26.2975 41.7616 25.3407 40.5801 24.1837C38.5743 22.243 36.7608 20.1019 34.4986 18.4254C33.9674 18.0336 33.4361 17.6693 32.8865 17.3229C30.5784 15.0817 33.1888 13.2411 33.7933 13.0226C34.4252 12.7948 34.0131 12.0111 31.9706 12.0204C29.9281 12.0294 28.0597 12.7128 25.6784 13.6239C25.3304 13.7606 24.9639 13.8607 24.5884 13.9427C22.4269 13.5328 20.1829 13.4415 17.8382 13.7059C13.4235 14.1978 9.8974 16.2843 7.3054 19.8468C4.1914 24.129 3.4587 28.9942 4.3563 34.0692C5.2997 39.4173 8.029 43.8453 12.2239 47.3077C16.5745 50.8973 21.5845 52.6558 27.2997 52.3187C30.771 52.1183 34.6361 51.6537 38.9958 47.9637C40.0948 48.5104 41.2489 48.7289 43.1632 48.8929C44.6378 49.0296 46.0575 48.8201 47.1565 48.5924C48.8784 48.2279 48.7594 46.6334 48.1366 46.3419C43.09 43.9913 44.1981 44.9479 43.1907 44.1734C45.7552 41.1395 49.6204 37.9869 51.1316 27.7733C51.2506 26.9625 51.1499 26.4522 51.1316 25.7962C51.1224 25.3954 51.214 25.2406 51.672 25.1949C52.9359 25.0491 54.1632 24.703 55.2898 24.0834C58.5596 22.2977 59.8784 19.3639 60.1898 15.847C60.2357 15.3094 60.1807 14.7535 59.6128 14.4713ZM31.119 46.1231C26.2281 42.2784 23.856 41.0118 22.8759 41.0665C21.96 41.1212 22.1249 42.169 22.3263 42.8524C22.537 43.5265 22.8118 43.9913 23.1964 44.5834C23.462 44.9752 23.6453 45.5582 22.9309 45.9957C21.3555 46.9706 18.6169 45.6676 18.4886 45.6039C15.3014 43.7269 12.6361 41.2486 10.7584 37.8595C8.9449 34.5975 7.8917 31.099 7.7176 27.3634C7.6718 26.4615 7.9374 26.1424 8.835 25.9786C10.0165 25.7599 11.2347 25.7142 12.4162 25.8873C17.408 26.6163 21.6577 28.8485 25.2205 32.3836C27.2538 34.3971 28.7925 36.8026 30.3771 39.1532C32.0623 41.6495 33.8758 44.0277 36.1839 45.9774C36.999 46.6607 37.6493 47.18 38.2721 47.5628C36.3946 47.7723 33.2622 47.818 31.119 46.1231ZM33.4637 31.0443C33.4637 30.6434 33.7843 30.3246 34.1874 30.3246C34.279 30.3246 34.3614 30.3426 34.4347 30.3699C34.5355 30.4065 34.6271 30.4612 34.7003 30.543C34.8286 30.6707 34.9018 30.8528 34.9018 31.0442C34.9018 31.4451 34.5813 31.7639 34.1784 31.7639C33.7755 31.7639 33.4637 31.4452 33.4637 31.0443ZM40.7452 34.7799C40.2781 34.9713 39.811 35.1351 39.3622 35.1534C38.6661 35.1898 37.9059 34.9073 37.4938 34.5611C36.8527 34.0235 36.3947 33.723 36.2024 32.7845C36.1199 32.3836 36.1657 31.764 36.2391 31.4088C36.4039 30.6434 36.2207 30.1515 35.6804 29.7049C35.2407 29.3404 34.682 29.2403 34.0683 29.2403C33.8393 29.2403 33.6288 29.14 33.473 29.058C33.2165 28.9305 33.006 28.6116 33.2074 28.2198C33.2715 28.0924 33.583 27.7825 33.6563 27.7279C34.4898 27.254 35.4515 27.409 36.3399 27.7643C37.1643 28.1014 37.7871 28.721 38.6846 29.5956C39.6005 30.6524 39.7653 30.9442 40.2874 31.7367C40.6997 32.3563 41.0752 32.994 41.3316 33.723C41.4873 34.1786 41.2856 34.5521 40.7452 34.7799Z" fill="#4D6BFE"/>
</svg>
