<svg width="512" height="512" viewBox="0 0 512 512" fill="none" xmlns="http://www.w3.org/2000/svg">
<path fill-rule="evenodd" clip-rule="evenodd" d="M168.64 23.2528C173.248 25.0668 177.408 28.0528 181.184 31.9998C187.477 38.5278 192.789 47.8718 196.843 58.9438C200.917 70.0798 203.563 82.4108 204.565 94.7838C217.997 87.1851 232.903 82.5582 248.277 81.2158L249.365 81.1308C267.925 79.6368 286.272 82.9868 302.272 91.2428C304.426 92.3763 306.54 93.5857 308.608 94.8688C309.675 82.7308 312.277 70.6768 316.288 59.7968C320.341 48.7038 325.653 39.3808 331.925 32.8318C335.43 29.0399 339.718 26.0554 344.491 24.0848C349.973 21.9518 355.797 21.5678 361.472 23.1888C370.027 25.6208 377.365 31.0398 383.147 38.9118C388.437 46.1018 392.405 55.3168 395.115 66.3678C400.021 86.2928 400.875 112.512 397.568 144.128L398.699 144.981L399.253 145.387C415.403 157.675 426.645 175.189 432.597 195.52C441.877 227.243 437.205 262.827 421.205 282.731L420.821 283.179L420.864 283.243C429.76 299.499 435.157 316.672 436.309 334.443L436.352 335.083C437.717 357.803 432.085 380.672 418.987 403.136L418.837 403.349L419.051 403.861C429.12 428.544 432.277 453.397 428.395 478.229L428.267 479.061C427.666 482.688 425.65 485.929 422.663 488.072C419.675 490.216 415.96 491.088 412.331 490.496C409.625 490.073 407.105 488.855 405.092 486.999C403.078 485.142 401.662 482.729 401.021 480.066C400.597 478.297 400.525 476.463 400.811 474.667C404.373 452.629 401.024 430.528 390.571 408.043C389.595 405.954 389.162 403.653 389.311 401.352C389.46 399.051 390.187 396.825 391.424 394.88L391.509 394.752C404.395 375.04 409.728 355.712 408.576 336.725C407.595 320.107 401.643 303.787 391.509 288.235C389.538 285.211 388.835 281.534 389.554 277.996C390.272 274.459 392.354 271.347 395.349 269.333L395.541 269.205C400.725 265.813 405.504 257.152 407.915 245.312C410.575 231.311 409.88 216.88 405.888 203.2C401.515 188.267 393.515 175.808 382.315 167.296C369.621 157.611 352.811 152.939 331.541 154.283C328.76 154.464 325.988 153.806 323.585 152.395C321.182 150.984 319.257 148.884 318.059 146.368C311.36 132.181 301.589 122.027 289.408 115.733C277.713 109.896 264.62 107.443 251.605 108.651C225.045 110.763 201.621 125.739 194.645 144.619C193.658 147.276 191.883 149.568 189.557 151.188C187.232 152.808 184.466 153.679 181.632 153.685C158.869 153.728 141.248 159.061 128.363 168.683C117.227 177.003 109.632 188.629 105.621 202.56C101.992 215.673 101.495 229.455 104.171 242.795C106.56 254.699 111.232 264.555 116.587 269.867L116.757 270.016C121.28 274.432 122.24 281.323 119.083 286.763C111.403 300.032 105.664 319.808 104.725 338.816C103.659 360.533 108.693 379.392 120.064 392.917L120.405 393.323C122.122 395.322 123.226 397.774 123.585 400.384C123.945 402.995 123.545 405.654 122.432 408.043C110.144 434.411 106.368 456.085 110.443 473.152C111.168 476.698 110.483 480.387 108.532 483.436C106.581 486.484 103.519 488.653 99.9949 489.48C96.4713 490.308 92.7639 489.729 89.66 487.867C86.5561 486.005 84.3001 483.007 83.3711 479.509C78.1871 457.792 81.7071 432.917 93.4611 404.885L93.7601 404.139L93.5901 403.883C87.8127 395.349 83.5007 385.911 80.8321 375.957L80.7251 375.552C77.4869 363.133 76.2129 350.284 76.9491 337.472C77.8881 318.059 82.8801 298.176 90.2191 282.219L90.4751 281.664L90.4321 281.621C84.1821 272.704 79.5521 261.291 76.9921 248.661L76.8851 248.149C73.3579 230.533 74.0377 212.333 78.8691 195.029C84.4591 175.509 95.4451 158.741 111.637 146.624C112.917 145.664 114.261 144.704 115.605 143.808C112.213 111.957 113.067 85.5678 117.995 65.5148C120.704 54.4638 124.693 45.2478 129.984 38.0588C135.744 30.2078 143.083 24.7888 151.637 22.3358C157.312 20.7148 163.157 21.0768 168.64 23.2318V23.2528ZM256.448 217.173C276.416 217.173 294.848 223.851 308.629 235.413C322.069 246.656 330.069 261.76 330.069 276.8C330.069 295.744 321.408 310.507 305.899 319.936C292.672 327.936 274.944 331.819 254.635 331.819C233.109 331.819 214.72 326.293 201.451 316.16C188.288 306.133 180.907 292.053 180.907 276.8C180.907 261.717 189.397 246.571 203.435 235.285C217.685 223.829 236.501 217.173 256.448 217.173ZM256.448 236.288C241.648 236.159 227.24 241.047 215.573 250.155C205.739 258.048 200.171 267.968 200.171 276.821C200.171 285.952 204.651 294.507 213.184 301.013C222.891 308.416 237.163 312.704 254.635 312.704C271.68 312.704 286.059 309.568 295.851 303.616C305.728 297.643 310.784 288.981 310.784 276.8C310.784 267.776 305.536 257.813 296.213 250.005C285.888 241.365 271.893 236.288 256.448 236.288ZM270.571 262.101L270.656 262.187C271.265 262.951 271.717 263.828 271.987 264.768C272.256 265.707 272.338 266.69 272.227 267.661C272.116 268.632 271.815 269.572 271.34 270.426C270.865 271.28 270.227 272.033 269.461 272.64L263.232 277.547V287.061C263.221 289.179 262.371 291.206 260.867 292.698C259.363 294.19 257.329 295.025 255.211 295.019C253.093 295.024 251.06 294.189 249.556 292.697C248.052 291.205 247.201 289.179 247.189 287.061V277.248L241.408 272.597C240.645 271.986 240.011 271.23 239.542 270.373C239.073 269.515 238.778 268.573 238.675 267.601C238.572 266.63 238.662 265.647 238.941 264.71C239.22 263.773 239.681 262.901 240.299 262.144C241.558 260.611 243.371 259.637 245.344 259.433C247.318 259.229 249.291 259.813 250.837 261.056L255.424 264.725L260.117 261.013C261.658 259.796 263.613 259.229 265.565 259.432C267.518 259.636 269.314 260.593 270.571 262.101ZM163.051 221.163C173.248 221.163 181.547 229.483 181.547 239.744C181.552 244.662 179.604 249.381 176.132 252.865C172.66 256.349 167.948 258.313 163.029 258.325C158.118 258.308 153.413 256.345 149.946 252.866C146.479 249.388 144.533 244.676 144.533 239.765C144.522 234.846 146.464 230.124 149.932 226.636C153.409 223.147 158.126 221.179 163.051 221.163ZM348.779 221.163C359.019 221.163 367.296 229.483 367.296 239.744C367.302 244.662 365.355 249.382 361.883 252.866C358.411 256.35 353.698 258.314 348.779 258.325C343.868 258.308 339.163 256.345 335.697 252.866C332.23 249.387 330.283 244.676 330.283 239.765C330.272 234.846 332.214 230.124 335.682 226.636C339.15 223.148 343.86 221.18 348.779 221.163ZM158.72 49.0668L158.656 49.1088C156.185 50.1837 154.074 51.9464 152.576 54.1868L152.469 54.3148C149.525 58.3468 146.965 64.2768 145.045 72.0638C141.419 86.8268 140.437 106.859 142.4 131.413C151.573 128.683 161.579 126.976 172.352 126.357L172.565 126.336L172.971 125.611C173.949 123.866 175.003 122.165 176.128 120.512C178.752 104.064 176.597 84.4158 170.731 68.3728C167.872 60.6078 164.395 54.5068 161.067 51.0288C160.38 50.3058 159.614 49.6619 158.784 49.1088L158.72 49.0668ZM354.432 49.9198L354.389 49.9408C353.559 50.4939 352.794 51.1379 352.107 51.8608C348.779 55.3388 345.28 61.4608 342.443 69.2268C336.256 86.1648 334.187 107.115 337.536 124.096L338.773 126.165L338.944 126.464H339.584C350.172 126.467 360.704 127.99 370.859 130.987C372.693 107.008 371.669 87.4028 368.128 72.9168C366.208 65.1308 363.648 59.1998 360.683 55.1678L360.597 55.0398C359.102 52.7914 356.991 51.0212 354.517 49.9408H354.432V49.9198Z" fill="black"/>
</svg>
